<svg width="30" height="30" viewBox="0 0 30 30" fill="none" xmlns="http://www.w3.org/2000/svg">
<path d="M13.8868 0.0410137C10.6114 0.351561 7.99223 1.38867 5.58403 3.33398C0.0644946 7.78125 -1.58199 15.5273 1.65239 21.8438C3.73832 25.9219 7.73442 28.9102 12.211 29.7305C16.5997 30.5391 20.9766 29.4434 24.4043 26.6777C28.7227 23.1914 30.7442 17.6953 29.7364 12.2109C29.1915 9.28125 27.7969 6.63867 25.6465 4.45898C23.1153 1.89844 19.9219 0.392576 16.3184 0.0585918C15.7207 0.00585747 14.3672 -0.00586128 13.8868 0.0410137ZM16.9922 1.31836C18.0528 1.48242 19.9336 1.99219 20.1211 2.16797C20.1504 2.19726 19.8516 2.80078 19.4532 3.5332L18.7383 4.85156L18.3165 4.71094C17.4493 4.41211 16.5704 4.27148 15.3985 4.23633C13.9161 4.18945 12.7442 4.34765 11.625 4.74609C11.3614 4.83398 11.2735 4.8457 11.2383 4.78711C10.9454 4.33594 9.84379 2.20312 9.87895 2.16797C9.96098 2.09179 11.168 1.70508 11.8067 1.55273C12.3282 1.42969 13.2598 1.27734 13.9161 1.20703C14.4082 1.15429 16.4004 1.23047 16.9922 1.31836ZM9.21098 3.5332C9.46293 3.99023 9.7852 4.58203 9.93168 4.83984L10.1895 5.32031L9.63871 5.63086C8.81254 6.09961 8.13285 6.62695 7.35356 7.40625C6.5977 8.16797 6.12895 8.77148 5.63676 9.62695C5.46684 9.92578 5.29692 10.1602 5.26176 10.1484C5.2266 10.1367 4.62309 9.82617 3.91996 9.45117L2.64262 8.77148L2.79496 8.50195C4.09575 6.20508 5.84184 4.37109 7.8809 3.16406C8.17387 2.98828 8.46098 2.81836 8.52543 2.77734C8.58989 2.73633 8.67192 2.70117 8.70121 2.70117C8.73637 2.69531 8.96489 3.07031 9.21098 3.5332ZM21.75 2.93554C23.9766 4.19531 25.9688 6.21094 27.1582 8.42578C27.2461 8.58984 27.3106 8.74219 27.2989 8.75391C27.2403 8.80664 24.7676 10.1367 24.7266 10.1367C24.7032 10.1367 24.545 9.89062 24.3692 9.59766C23.4141 7.93359 22.0137 6.55078 20.3262 5.58398L19.8223 5.29687L20.5313 3.99609C20.9239 3.28125 21.2579 2.69531 21.2813 2.69531C21.2989 2.69531 21.5098 2.80664 21.75 2.93554ZM16.9629 5.5664C18.9024 5.98242 20.5254 6.87305 21.8965 8.27344C24.7207 11.1562 25.4356 15.5508 23.6661 19.1953C22.1602 22.3008 19.0489 24.3984 15.6563 24.5977C12.7207 24.7734 10.0723 23.7656 8.08012 21.7031C6.79692 20.373 6.02348 18.9375 5.58989 17.0801C5.43168 16.4238 5.42582 16.2949 5.41996 15.0586C5.41996 13.8926 5.43754 13.6641 5.55473 13.1016C6.4395 8.98242 9.63285 6.0293 13.8575 5.42578C13.9571 5.41406 14.5606 5.4082 15.2051 5.41992C16.1368 5.43164 16.4942 5.46094 16.9629 5.5664ZM4.11918 10.8809C4.68754 11.1855 4.85746 11.2969 4.82817 11.3672C4.80473 11.4141 4.69926 11.7656 4.59379 12.1523C4.2891 13.2188 4.20121 14.0098 4.23637 15.3223C4.26567 16.5293 4.37114 17.2207 4.67582 18.2051L4.84575 18.7383L3.53324 19.4531C2.80082 19.8516 2.19731 20.1504 2.16801 20.1211C2.08598 20.0332 1.71098 18.8672 1.55864 18.2227C1.28324 17.0508 1.20707 16.3477 1.20707 15C1.20121 13.1191 1.45317 11.7305 2.11528 9.97852C2.16215 9.84375 2.17387 9.84961 2.76567 10.166C3.09965 10.3418 3.70317 10.6641 4.11918 10.8809ZM28.0196 10.3418C28.2598 10.9863 28.5586 12.1992 28.6875 13.0371C28.7637 13.5527 28.793 14.0742 28.793 15C28.793 16.3418 28.7168 17.0508 28.4473 18.1934C28.3008 18.8262 27.9141 20.0391 27.8321 20.1211C27.8028 20.1504 27.2168 19.8633 26.4668 19.4531L25.1485 18.7324L25.2364 18.4922C25.9629 16.4473 25.9688 13.5996 25.254 11.5664L25.1485 11.2676L26.4493 10.5586C27.1582 10.166 27.7676 9.85547 27.7969 9.86133C27.8262 9.87305 27.9258 10.0898 28.0196 10.3418ZM6.33989 21.4688C7.15434 22.5762 8.38481 23.6719 9.5977 24.3691C9.89653 24.5449 10.1368 24.7031 10.1368 24.7266C10.1368 24.7676 8.80668 27.2402 8.75395 27.2988C8.74223 27.3105 8.58989 27.2461 8.42582 27.1582C6.1641 25.9395 4.06059 23.8301 2.83598 21.5684C2.74223 21.3926 2.69535 21.2402 2.72465 21.2285C2.75981 21.2168 3.3516 20.8945 4.04301 20.5137L5.29692 19.8223L5.6016 20.3555C5.77153 20.6484 6.09965 21.1523 6.33989 21.4688ZM26.2793 20.6836C26.8301 20.9824 27.2813 21.2344 27.293 21.2402C27.3223 21.2637 27.0235 21.8438 26.7598 22.2656C25.5411 24.2227 23.5782 26.0801 21.5743 27.1582C21.4102 27.2461 21.2579 27.3105 21.2461 27.2988C21.211 27.2578 19.8575 24.7617 19.8457 24.7148C19.8399 24.6855 20.0391 24.5566 20.2852 24.4219C21.9668 23.4961 23.7012 21.7324 24.5157 20.1152L24.668 19.8047L24.9786 19.9746C25.1426 20.0684 25.7344 20.3848 26.2793 20.6836ZM12.3516 25.4824C13.9864 25.9043 16.0547 25.8926 17.7188 25.459C18.0118 25.3828 18.3633 25.2832 18.4922 25.2305L18.7383 25.1484L19.4532 26.4668C19.8516 27.1992 20.1504 27.8027 20.1211 27.832C20.0332 27.9141 18.8672 28.2891 18.2227 28.4414C17.0391 28.7227 16.3477 28.793 15 28.793C13.6465 28.793 12.92 28.7168 11.8067 28.4414C11.1504 28.2832 9.96098 27.9023 9.87895 27.832C9.84965 27.8027 10.1485 27.1992 10.5469 26.4668L11.2618 25.1484L11.5664 25.2539C11.7305 25.3125 12.0821 25.418 12.3516 25.4824Z" fill="white"/>
<path d="M14.5078 8.73047C12.8144 9.7207 10.8984 11.373 9.79101 12.791C8.01562 15.0586 7.91601 17.3613 9.52148 18.9609C10.0957 19.5352 10.7051 19.8633 11.4785 20.0156C11.9531 20.1094 12.7207 20.1035 12.9785 19.998C13.0605 19.9688 13.0664 20.0098 13.0254 20.3379C12.9492 20.9414 12.9727 21.082 13.1426 21.2578L13.3008 21.416L15 21.4336L16.6934 21.4512L16.8809 21.2812C17.0918 21.0938 17.1211 20.9238 17.0332 20.3438L16.9863 20.0332L17.209 20.0801C17.332 20.1035 17.6836 20.1211 17.9883 20.1152C19.6758 20.0918 21.1348 18.9199 21.5625 17.25C22.0957 15.1699 20.6953 12.6211 17.6953 10.2246C16.9805 9.65039 15.7441 8.7832 15.3691 8.58984C15.0879 8.44922 14.9531 8.47266 14.5078 8.73047ZM15.709 10.2012C16.6934 10.875 17.3789 11.4492 18.2519 12.3281C19.4121 13.4883 19.9746 14.2852 20.3086 15.2344C20.8125 16.6758 20.2852 18.0996 19.0137 18.6973C18.2051 19.0781 17.3965 19.0488 16.5293 18.6035C16.3652 18.5156 16.3008 18.5098 16.1074 18.5684C15.6973 18.6914 15.6504 18.9141 15.8027 20.0215L15.8379 20.2734H15.0293H14.2207L14.2617 20.0215C14.2793 19.8867 14.3144 19.5586 14.332 19.2949C14.373 18.8379 14.3672 18.8145 14.2207 18.668C13.9805 18.4277 13.8164 18.4219 13.3711 18.6211C12.5332 19.0078 11.7832 19.002 10.9805 18.6094C10.0312 18.1348 9.49218 17.1738 9.56835 16.084C9.67382 14.6191 10.8867 12.9199 13.0488 11.1973C13.7402 10.6523 14.9707 9.78516 15.0586 9.78516C15.082 9.78516 15.375 9.97266 15.709 10.2012Z" fill="white"/>
</svg>
